<?xml version="1.0" encoding="UTF-8"?>
<!DOCTYPE svg PUBLIC "-//W3C//DTD SVG 1.1//EN" "http://www.w3.org/Graphics/SVG/1.1/DTD/svg11.dtd">
<!-- Creator: CorelDRAW 2020 (64-Bit Evaluation Version) -->
<svg xmlns="http://www.w3.org/2000/svg" xml:space="preserve" width="100%" height="100%" version="1.1" shape-rendering="geometricPrecision" text-rendering="geometricPrecision" image-rendering="optimizeQuality" fill-rule="evenodd" clip-rule="evenodd"
viewBox="0 0 253.152 66.038"
 xmlns:xlink="http://www.w3.org/1999/xlink"
 xmlns:xodm="http://www.corel.com/coreldraw/odm/2003">
 <defs>
    <clipPath id="id0">
     <rect x="3.74" y="12.441" width="41.156" height="41.156"/>
    </clipPath>
 </defs>
 <g id="Layer_x0020_1">
  <metadata id="CorelCorpID_0Corel-Layer"/>
  <g id="_2282858841024">
   <g clip-path="url(#id0)">
    <image x="3.74" y="12.442" width="41.155" height="41.155" xlink:href="lalogo1_Images\lalogo1_ImgID1.png"/>
   </g>
   <polygon fill="#2B2A29" fill-rule="nonzero" points="51.702,43.083 51.702,23.125 55.778,23.125 55.778,39.682 65.87,39.682 65.87,43.083 "/>
   <path id="1" fill="#2B2A29" fill-rule="nonzero" d="M67.918 33.141c0,-2.052 0.309,-3.776 0.923,-5.172 0.454,-1.026 1.082,-1.949 1.874,-2.764 0.791,-0.815 1.658,-1.42 2.6,-1.818 1.255,-0.529 2.703,-0.796 4.343,-0.796 2.97,0 5.341,0.923 7.126,2.764 1.78,1.846 2.67,4.409 2.67,7.693 0,3.256 -0.885,5.804 -2.652,7.641 -1.766,1.841 -4.132,2.759 -7.088,2.759 -2.994,0 -5.378,-0.913 -7.145,-2.745 -1.766,-1.827 -2.651,-4.348 -2.651,-7.562zm4.188 -0.135c0,2.281 0.53,4.01 1.584,5.191 1.054,1.175 2.394,1.766 4.015,1.766 1.625,0 2.956,-0.586 4.001,-1.752 1.04,-1.172 1.56,-2.924 1.56,-5.262 0,-2.309 -0.506,-4.033 -1.523,-5.167 -1.012,-1.139 -2.356,-1.706 -4.038,-1.706 -1.678,0 -3.031,0.577 -4.058,1.725 -1.026,1.152 -1.541,2.885 -1.541,5.205z"/>
   <path id="2" fill="#2B2A29" fill-rule="nonzero" d="M89.558 36.561l3.963 -0.393c0.239,1.326 0.717,2.296 1.443,2.919 0.727,0.623 1.706,0.932 2.938,0.932 1.302,0 2.286,-0.276 2.947,-0.829 0.66,-0.553 0.993,-1.2 0.993,-1.94 0,-0.478 -0.141,-0.881 -0.417,-1.218 -0.276,-0.333 -0.764,-0.623 -1.457,-0.867 -0.473,-0.168 -1.551,-0.459 -3.237,-0.88 -2.17,-0.544 -3.692,-1.209 -4.568,-2.001 -1.232,-1.11 -1.846,-2.464 -1.846,-4.062 0,-1.026 0.29,-1.991 0.867,-2.886 0.58,-0.895 1.414,-1.574 2.506,-2.042 1.092,-0.469 2.403,-0.703 3.949,-0.703 2.516,0 4.414,0.557 5.683,1.677 1.275,1.12 1.94,2.61 2.006,4.479l-4.076 0.14c-0.174,-1.04 -0.544,-1.785 -1.111,-2.239 -0.567,-0.454 -1.419,-0.684 -2.553,-0.684 -1.171,0 -2.09,0.244 -2.75,0.731 -0.426,0.314 -0.642,0.731 -0.642,1.255 0,0.478 0.201,0.886 0.604,1.223 0.511,0.436 1.753,0.886 3.725,1.354 1.972,0.464 3.429,0.951 4.371,1.448 0.946,0.501 1.687,1.18 2.221,2.047 0.534,0.867 0.801,1.935 0.801,3.205 0,1.152 -0.319,2.234 -0.961,3.242 -0.641,1.007 -1.546,1.757 -2.717,2.244 -1.171,0.492 -2.633,0.735 -4.38,0.735 -2.544,0 -4.498,-0.585 -5.861,-1.761 -1.364,-1.171 -2.174,-2.881 -2.441,-5.126z"/>
   <path id="3" fill="#2B2A29" fill-rule="nonzero" d="M134.271 43.083l-4.39 0 -1.738 -4.582 -8.072 0 -1.673 4.582 -4.31 0 7.815 -20.127 4.305 0 8.063 20.127zm-7.449 -7.983l-2.797 -7.449 -2.717 7.449 5.514 0z"/>
   <polygon id="4" fill="#2B2A29" fill-rule="nonzero" points="136.44,43.083 136.44,22.956 140.385,22.956 148.668,36.444 148.668,22.956 152.435,22.956 152.435,43.083 148.363,43.083 140.207,29.853 140.207,43.083 "/>
   <path id="5" fill="#2B2A29" fill-rule="nonzero" d="M166.101 35.69l0 -3.401 8.742 0 0 8.03c-0.848,0.829 -2.08,1.555 -3.697,2.188 -1.611,0.628 -3.246,0.941 -4.905,0.941 -2.103,0 -3.935,-0.44 -5.5,-1.325 -1.56,-0.886 -2.736,-2.156 -3.523,-3.8 -0.787,-1.644 -1.181,-3.439 -1.181,-5.374 0,-2.099 0.441,-3.963 1.317,-5.598 0.881,-1.631 2.164,-2.886 3.856,-3.758 1.293,-0.67 2.895,-1.002 4.816,-1.002 2.497,0 4.45,0.525 5.856,1.574 1.401,1.054 2.305,2.502 2.708,4.357l-4.048 0.759c-0.281,-0.989 -0.815,-1.771 -1.598,-2.347 -0.777,-0.572 -1.752,-0.858 -2.923,-0.858 -1.771,0 -3.181,0.563 -4.226,1.692 -1.045,1.129 -1.569,2.801 -1.569,5.017 0,2.394 0.529,4.189 1.588,5.383 1.063,1.195 2.45,1.795 4.17,1.795 0.848,0 1.7,-0.169 2.553,-0.502 0.857,-0.332 1.588,-0.74 2.202,-1.218l0 -2.553 -4.638 0z"/>
   <polygon id="6" fill="#2B2A29" fill-rule="nonzero" points="178.605,43.083 178.605,22.956 193.503,22.956 193.503,26.358 182.681,26.358 182.681,30.827 192.744,30.827 192.744,34.228 182.681,34.228 182.681,39.682 193.897,39.682 193.897,43.083 "/>
   <polygon id="7" fill="#2B2A29" fill-rule="nonzero" points="197.466,43.083 197.466,23.125 201.542,23.125 201.542,39.682 211.634,39.682 211.634,43.083 "/>
   <polygon id="8" fill="#2B2A29" fill-rule="nonzero" points="214.525,43.083 214.525,22.956 229.423,22.956 229.423,26.358 218.601,26.358 218.601,30.827 228.664,30.827 228.664,34.228 218.601,34.228 218.601,39.682 229.817,39.682 229.817,43.083 "/>
   <path id="9" fill="#2B2A29" fill-rule="nonzero" d="M232.206 36.561l3.963 -0.393c0.239,1.326 0.717,2.296 1.443,2.919 0.727,0.623 1.706,0.932 2.938,0.932 1.302,0 2.286,-0.276 2.947,-0.829 0.66,-0.553 0.993,-1.2 0.993,-1.94 0,-0.478 -0.141,-0.881 -0.417,-1.218 -0.276,-0.333 -0.764,-0.623 -1.457,-0.867 -0.473,-0.168 -1.551,-0.459 -3.237,-0.88 -2.17,-0.544 -3.692,-1.209 -4.568,-2.001 -1.232,-1.11 -1.846,-2.464 -1.846,-4.062 0,-1.026 0.29,-1.991 0.867,-2.886 0.58,-0.895 1.414,-1.574 2.506,-2.042 1.092,-0.469 2.403,-0.703 3.949,-0.703 2.516,0 4.414,0.557 5.683,1.677 1.275,1.12 1.94,2.61 2.006,4.479l-4.076 0.14c-0.174,-1.04 -0.544,-1.785 -1.111,-2.239 -0.567,-0.454 -1.419,-0.684 -2.553,-0.684 -1.171,0 -2.09,0.244 -2.75,0.731 -0.426,0.314 -0.642,0.731 -0.642,1.255 0,0.478 0.201,0.886 0.604,1.223 0.511,0.436 1.753,0.886 3.725,1.354 1.972,0.464 3.429,0.951 4.371,1.448 0.946,0.501 1.687,1.18 2.221,2.047 0.534,0.867 0.801,1.935 0.801,3.205 0,1.152 -0.319,2.234 -0.961,3.242 -0.641,1.007 -1.546,1.757 -2.717,2.244 -1.171,0.492 -2.633,0.735 -4.38,0.735 -2.544,0 -4.498,-0.585 -5.861,-1.761 -1.364,-1.171 -2.174,-2.881 -2.441,-5.126z"/>
  </g>
 </g>
</svg>
